<svg width="32" height="32" viewBox="0 0 32 32" fill="none" xmlns="http://www.w3.org/2000/svg">
<ellipse cx="16" cy="16" rx="16" ry="16" fill="white"/>
<path d="M20.6666 16C18.1022 16 16.0178 13.9289 16 11.3645C15.9822 13.92 13.9155 15.9867 11.3556 16C13.9244 16.0134 15.9955 18.0978 16 20.6667C16 18.0889 18.0888 16 20.6666 16ZM16 21C16 23.76 13.76 26 11 26C8.24004 26 6.00006 23.76 6.00006 21C6.00006 18.2489 8.22226 16.0134 10.9734 16C8.21337 15.9867 5.98673 13.7334 6.00006 10.9734C6.01339 8.21342 8.26671 5.98677 11.0267 6.00011C13.7644 6.01344 15.9822 8.2312 16 10.969C16.0178 8.20898 18.2711 5.98233 21.031 6.00011C23.791 6.01788 26.0177 8.2712 25.9999 11.0312C25.9821 13.7778 23.751 16 20.9999 16C23.7599 16 25.9999 18.24 25.9999 21C25.9999 23.76 23.7599 26 20.9999 26C18.2355 26 16 23.76 16 21Z" fill="#7CCB3C"/>
</svg>
