<svg width="36" height="36" viewBox="0 0 36 36" fill="none" xmlns="http://www.w3.org/2000/svg">
<circle cx="18" cy="18" r="17.5" fill="black" stroke="#ECEFF2"/>
<path d="M27.7141 11.6947C27.3831 11.4422 26.9884 11.0973 26.2691 11.0111C25.5943 10.9248 24.9068 11.3621 24.4421 11.6516C23.9774 11.941 23.099 12.791 22.7361 13.0496C22.3733 13.3083 21.4439 13.5485 19.9479 14.4169C18.452 15.2853 12.5828 18.9313 12.5828 18.9313L14.1105 18.9498L7.29919 22.3433H7.98032L7 23.0639C7 23.0639 7.86574 23.2856 8.59144 22.8421V23.0454C8.59144 23.0454 16.7014 19.9537 18.2674 20.7543L17.3125 21.0253C17.3953 21.0253 18.9358 21.1238 18.9358 21.1238C18.9358 21.1238 18.9867 22.0538 19.9161 22.6512C20.8455 23.2425 20.8646 23.5689 20.8646 23.5689C20.8646 23.5689 20.3808 23.7598 20.3808 24C20.3808 24 21.0938 23.7906 21.7558 23.8091C22.4178 23.8276 22.9971 24 22.9971 24C22.9971 24 22.9462 23.7413 22.3032 23.5689C21.6539 23.3903 21.0237 22.719 20.7118 22.3494C20.3999 21.9799 20.1834 21.3209 20.4508 20.6619C20.6736 20.1015 21.4502 19.7935 23.0544 18.9929C24.945 18.0444 25.3779 17.3423 25.6453 16.7942C25.9126 16.2461 26.3073 15.1559 26.5301 14.6448C26.8102 13.9858 27.1539 13.6347 27.4404 13.4253C27.7205 13.2159 29 12.754 29 12.754C29 12.754 28.026 11.9349 27.7141 11.6947Z" fill="white"/>
</svg>
