<svg width="12" height="12" viewBox="0 0 12 12" fill="none" xmlns="http://www.w3.org/2000/svg">
<path opacity="0.3" d="M6 0C2.7 0 0 2.7 0 6C0 9.3 2.7 12 6 12C9.3 12 12 9.3 12 6C12 2.7 9.3 0 6 0ZM6 11C3.2 11 1 8.8 1 6C1 3.2 3.2 1 6 1C8.8 1 11 3.2 11 6C11 8.8 8.8 11 6 11Z" fill="black"/>
<path opacity="0.3" d="M6.5002 7.79999H5.2002V8.99999H6.5002V7.79999Z" fill="black"/>
<path opacity="0.3" d="M5.0999 5.10001H3.8999C3.8999 4.80001 3.9999 4.60001 3.9999 4.30001C4.0999 4.10001 4.1999 3.90001 4.3999 3.70001C4.5999 3.50001 4.7999 3.40001 4.9999 3.30001C5.1999 3.20001 5.4999 3.10001 5.7999 3.10001C6.1999 3.10001 6.4999 3.20001 6.6999 3.30001C6.9999 3.40001 7.1999 3.50001 7.3999 3.70001C7.5999 3.90001 7.6999 4.00001 7.6999 4.20001C7.7999 4.40001 7.7999 4.50001 7.7999 4.70001C7.7999 5.00001 7.7999 5.20001 7.6999 5.30001C7.6999 5.50001 7.5999 5.60001 7.4999 5.80001C7.3999 5.90001 7.2999 6.00001 7.1999 6.10001C6.9999 6.10001 6.8999 6.20001 6.7999 6.30001C6.6999 6.40001 6.5999 6.50001 6.4999 6.60001C6.4999 6.70001 6.3999 6.80001 6.3999 7.00001V7.30001H5.2999V6.90001C5.2999 6.70001 5.3999 6.50001 5.3999 6.30001C5.4999 6.20001 5.5999 6.10001 5.6999 6.00001C5.7999 5.80001 5.8999 5.80001 5.9999 5.70001C6.0999 5.60001 6.1999 5.50001 6.2999 5.50001C6.3999 5.40001 6.4999 5.30001 6.4999 5.20001C6.5999 5.10001 6.5999 5.00001 6.5999 4.80001C6.5999 4.60001 6.4999 4.40001 6.3999 4.30001C6.2999 4.10001 6.0999 4.10001 5.8999 4.10001C5.7999 4.10001 5.5999 4.10001 5.4999 4.20001C5.3999 4.20001 5.2999 4.30001 5.2999 4.40001C5.1999 4.50001 5.1999 4.60001 5.0999 4.70001C5.0999 4.90001 5.0999 5.00001 5.0999 5.10001Z" fill="black"/>
</svg>
