<svg width="35" height="35" viewBox="0 0 35 35" fill="none" xmlns="http://www.w3.org/2000/svg">
<circle cx="17.5" cy="17.5" r="17.5" fill="#FFE6F2"/>
<path d="M16.6918 3.90387C11.3072 3.90387 6.99951 8.21156 6.99951 13.5962C6.99951 14.6731 7.13413 15.75 7.53797 16.8269C7.8072 17.5 8.48028 17.9039 9.28797 17.6346C9.96105 17.3654 10.3649 16.6923 10.0957 15.8846C9.82644 15.0769 9.69182 14.2693 9.69182 13.3269C9.82643 9.69233 12.788 6.73079 16.288 6.59618C20.3264 6.32695 23.6918 9.55771 23.6918 13.5962C23.6918 17.3654 20.7303 20.3269 17.0957 20.5962C17.0957 20.5962 15.7495 20.7308 15.0764 20.7308C14.8072 20.7308 14.538 20.8654 14.2687 20.8654C14.1341 20.8654 14.1341 20.8654 14.1341 20.7308L14.4034 19.6539L15.6149 13.8654C15.7495 13.1923 15.3457 12.3846 14.538 12.25C13.8649 12.1154 13.0572 12.5193 12.9226 13.3269C12.9226 13.3269 9.82644 27.4616 9.82644 27.5962C9.69182 28.2693 10.0957 29.0769 10.9034 29.2116C11.5764 29.3462 12.3841 28.9423 12.5187 28.1346C12.5187 28 12.9226 26.1154 12.9226 26.1154C13.1918 24.6346 14.4034 23.5577 15.7495 23.4231C16.0187 23.4231 17.2303 23.2885 17.2303 23.2885C22.2111 22.8846 26.2495 18.7116 26.2495 13.5962C26.3841 8.34617 21.9418 3.90387 16.6918 3.90387Z" fill="#F70377"/>
<path d="M17.3652 26.3846C16.5575 26.25 15.6152 26.7885 15.4806 27.5962C15.346 28.4039 15.8844 29.3462 16.6921 29.4808C17.4998 29.6154 18.4421 29.0769 18.5767 28.2692C18.846 27.3269 18.3075 26.5192 17.3652 26.3846Z" fill="#F70377"/>
</svg>
